<?xml version="1.0" encoding="iso-8859-1"?>
<!-- Uploaded to: SVG Repo, www.svgrepo.com, Generator: SVG Repo Mixer Tools -->
<svg fill="#3498db" height="800px" width="800px" version="1.1" id="Layer_1" xmlns="http://www.w3.org/2000/svg" xmlns:xlink="http://www.w3.org/1999/xlink" 
	 viewBox="0 0 512 512" xml:space="preserve">
<g>
	<g>
		<path d="M255.991,0c-28.723,0-52.087,23.347-52.087,52.079c0,28.732,23.364,52.079,52.087,52.079
			c28.723,0,52.105-23.356,52.105-52.079C308.096,23.347,284.715,0,255.991,0z M255.991,78.925
			c-14.797,0-26.837-12.049-26.837-26.846s12.041-26.846,26.837-26.846c14.797,0,26.837,12.049,26.837,26.846
			S270.797,78.925,255.991,78.925z"/>
	</g>
</g>
<g>
	<g>
		<path d="M307.772,120.969c-1.775-9.754-10.274-16.828-20.198-16.828H256h-31.565c-9.933,0.009-18.432,7.083-20.207,16.836
			l-8.047,44.254h25.685l6.519-35.849h14.984v35.849h25.259v-35.849h14.985l6.519,35.84h25.685L307.772,120.969z"/>
	</g>
</g>
<g>
	<g>
		<path d="M256,346.769c-28.723,0-52.087,23.347-52.087,52.079s23.364,52.079,52.087,52.079s52.096-23.356,52.096-52.079
			S284.723,346.769,256,346.769z M255.991,425.702c-14.797,0-26.837-12.049-26.837-26.846s12.041-26.846,26.837-26.846
			c14.797,0,26.837,12.049,26.837,26.846S270.797,425.702,255.991,425.702z"/>
	</g>
</g>
<g>
	<g>
		<path d="M307.772,467.746c-1.775-9.745-10.274-16.819-20.207-16.819h-31.573h-31.565c-9.924,0-18.423,7.074-20.198,16.828
			L196.19,512h25.677l6.519-35.849h14.984V512h25.259v-35.849h14.985L290.133,512h25.685L307.772,467.746z"/>
	</g>
</g>
<g>
	<g>
		<path d="M59.81,346.769c-28.723,0-52.087,23.347-52.087,52.079s23.364,52.079,52.087,52.079s52.096-23.356,52.096-52.079
			S88.533,346.769,59.81,346.769z M59.81,425.702c-14.797,0-26.837-12.049-26.837-26.846s12.041-26.846,26.837-26.846
			s26.837,12.049,26.837,26.846S74.607,425.702,59.81,425.702z"/>
	</g>
</g>
<g>
	<g>
		<path d="M111.582,467.746c-1.775-9.745-10.274-16.819-20.198-16.819H59.81H28.245c-9.924,0-18.424,7.074-20.198,16.828L0,512
			h25.677l6.519-35.849h14.984V512h25.259v-35.849h14.985L93.943,512h25.685L111.582,467.746z"/>
	</g>
</g>
<g>
	<g>
		<path d="M452.181,346.769c-28.723,0-52.088,23.347-52.088,52.079s23.364,52.079,52.088,52.079
			c28.723,0,52.096-23.356,52.096-52.079S480.905,346.769,452.181,346.769z M452.181,425.702c-14.797,0-26.837-12.049-26.837-26.846
			s12.041-26.846,26.837-26.846s26.837,12.049,26.837,26.846S466.978,425.702,452.181,425.702z"/>
	</g>
</g>
<g>
	<g>
		<path d="M503.953,467.746c-1.775-9.754-10.274-16.828-20.198-16.828h-31.573h-31.565c-9.924,0-18.423,7.074-20.198,16.828
			L392.371,512h25.677l6.519-35.849h14.985V512h25.259v-35.849h14.985L486.315,512H512L503.953,467.746z"/>
	</g>
</g>
<g>
	<g>
		<polygon points="268.8,217.6 268.8,192 243.2,192 243.2,217.6 46.071,217.6 46.071,320 71.671,320 71.671,243.2 243.2,243.2
			243.2,320 268.8,320 268.8,243.2 440.329,243.2 440.329,320 465.929,320 465.929,217.6 		"/>
	</g>
</g>
</svg>
